<svg xmlns="http://www.w3.org/2000/svg" xmlns:xlink="http://www.w3.org/1999/xlink" width="800" zoomAndPan="magnify" viewBox="0 0 600 599.999999" height="800" preserveAspectRatio="xMidYMid meet" version="1.0"><defs><g/><clipPath id="60394ff142"><rect x="0" width="398" y="0" height="556"/></clipPath></defs><g transform="matrix(1, 0, 0, 1, 102, -0.000000000000034788)"><g clip-path="url(#60394ff142)"><g fill="#ffffff" fill-opacity="1"><g transform="translate(0.181417, 387.515086)"><g><path d="M 143.054688 -228.332031 C 110.4375 -228.332031 82.480469 -212.953125 68.5 -189.1875 L 68.964844 -219.945312 C 68.964844 -226.933594 65.238281 -230.660156 55.917969 -226.46875 L 22.367188 -210.15625 C 17.707031 -208.292969 14.910156 -205.5 14.910156 -201.769531 L 14.910156 -200.371094 C 14.910156 -191.050781 33.550781 -190.585938 33.550781 -174.277344 L 33.550781 72.691406 C 33.550781 89.933594 16.308594 89.933594 16.308594 98.789062 L 16.308594 100.1875 C 16.308594 104.378906 20.503906 106.242188 26.09375 106.242188 L 83.410156 106.242188 C 89.003906 106.242188 92.730469 104.378906 92.730469 100.1875 L 92.730469 98.789062 C 92.730469 89.933594 74.558594 89.933594 74.558594 72.691406 L 74.558594 -27.492188 C 90.867188 -7.457031 114.632812 4.660156 143.523438 4.660156 C 202.234375 4.660156 250.234375 -46.132812 250.234375 -115.097656 C 250.234375 -184.0625 199.90625 -228.332031 143.054688 -228.332031 Z M 137.929688 -10.25 C 105.3125 -10.25 74.558594 -44.734375 74.558594 -82.011719 L 74.558594 -161.695312 C 78.285156 -190.121094 103.914062 -213.417969 132.804688 -213.417969 C 178.003906 -213.417969 208.761719 -168.21875 208.761719 -103.914062 C 208.761719 -46.597656 180.800781 -10.25 137.929688 -10.25 Z M 137.929688 -10.25 "/></g></g></g><g fill="#059669" fill-opacity="1"><g transform="translate(229.913093, 387.515086)"><g><path d="M 101.117188 4.660156 C 138.398438 4.660156 160.765625 -23.300781 160.765625 -52.191406 C 160.765625 -60.578125 149.582031 -61.042969 146.785156 -54.054688 C 144.921875 -38.210938 132.804688 -26.09375 112.300781 -26.09375 C 95.058594 -26.09375 82.945312 -39.609375 82.945312 -65.238281 L 82.945312 -205.03125 L 147.25 -205.03125 C 150.976562 -205.03125 154.238281 -207.828125 154.238281 -212.023438 L 154.238281 -216.683594 C 154.238281 -220.410156 150.976562 -223.671875 147.25 -223.671875 L 82.945312 -223.671875 L 82.480469 -267.941406 C 82.480469 -273.996094 80.613281 -277.257812 75.023438 -277.257812 L 70.363281 -277.257812 C 66.167969 -277.257812 62.90625 -273.996094 62.441406 -267.941406 C 60.113281 -241.378906 49.394531 -223.671875 27.027344 -223.671875 L 10.25 -223.671875 C 5.589844 -223.671875 3.261719 -220.875 3.261719 -216.683594 L 3.261719 -212.023438 C 3.261719 -207.828125 6.058594 -205.03125 10.25 -205.03125 L 41.007812 -205.03125 L 41.007812 -65.703125 C 41.007812 -18.171875 65.238281 4.660156 101.117188 4.660156 Z M 101.117188 4.660156 "/></g></g></g></g></g></svg>