<svg xmlns="http://www.w3.org/2000/svg" xmlns:xlink="http://www.w3.org/1999/xlink" width="1640" zoomAndPan="magnify" viewBox="0 0 1230 693.000001" height="924" preserveAspectRatio="xMidYMid meet" version="1.0"><defs><g/><clipPath id="57969ba1ad"><rect x="0" width="1225" y="0" height="356"/></clipPath></defs><g transform="matrix(1, 0, 0, 1, 4, 137)"><g clip-path="url(#57969ba1ad)"><g fill="#ebebeb" fill-opacity="1"><g transform="translate(1.015075, 260.167839)"><g><path d="M 79.894531 -127.523438 C 61.679688 -127.523438 46.0625 -118.933594 38.257812 -105.660156 L 38.515625 -122.835938 C 38.515625 -126.742188 36.433594 -128.824219 31.230469 -126.480469 L 12.492188 -117.371094 C 9.890625 -116.332031 8.328125 -114.769531 8.328125 -112.6875 L 8.328125 -111.90625 C 8.328125 -106.703125 18.738281 -106.441406 18.738281 -97.332031 L 18.738281 40.597656 C 18.738281 50.226562 9.109375 50.226562 9.109375 55.171875 L 9.109375 55.953125 C 9.109375 58.296875 11.449219 59.335938 14.574219 59.335938 L 46.585938 59.335938 C 49.707031 59.335938 51.789062 58.296875 51.789062 55.953125 L 51.789062 55.171875 C 51.789062 50.226562 41.640625 50.226562 41.640625 40.597656 L 41.640625 -15.355469 C 50.75 -4.164062 64.019531 2.601562 80.15625 2.601562 C 112.949219 2.601562 139.753906 -25.765625 139.753906 -64.28125 C 139.753906 -102.796875 111.648438 -127.523438 79.894531 -127.523438 Z M 77.035156 -5.726562 C 58.816406 -5.726562 41.640625 -24.984375 41.640625 -45.804688 L 41.640625 -90.304688 C 43.722656 -106.179688 58.035156 -119.195312 74.171875 -119.195312 C 99.414062 -119.195312 116.589844 -93.949219 116.589844 -58.035156 C 116.589844 -26.023438 100.976562 -5.726562 77.035156 -5.726562 Z M 77.035156 -5.726562 "/></g></g></g><g fill="#ebebeb" fill-opacity="1"><g transform="translate(129.83132, 260.167839)"><g><path d="M 139.492188 -116.589844 L 139.492188 -117.371094 C 139.492188 -119.714844 138.191406 -121.015625 135.589844 -121.796875 L 117.632812 -126.480469 C 112.425781 -128.300781 109.566406 -125.960938 109.566406 -122.054688 L 109.566406 -108.003906 C 100.976562 -119.453125 86.921875 -127.523438 70.007812 -127.523438 C 35.132812 -127.523438 8.847656 -100.714844 8.847656 -62.71875 C 8.847656 -23.160156 37.214844 2.601562 68.964844 2.601562 C 85.101562 2.601562 100.714844 -4.683594 109.304688 -18.738281 L 109.304688 -4.164062 C 109.304688 -1.820312 111.125 0 113.46875 0 L 135.589844 0 C 137.929688 0 139.234375 -1.039062 139.234375 -2.863281 L 139.234375 -3.644531 C 139.234375 -8.066406 129.605469 -8.847656 129.605469 -18.21875 L 129.605469 -100.976562 C 129.605469 -111.125 139.492188 -112.6875 139.492188 -116.589844 Z M 74.429688 -5.984375 C 48.40625 -6.246094 30.710938 -34.875 31.230469 -70.527344 C 31.488281 -99.675781 47.105469 -119.195312 69.746094 -119.195312 C 90.828125 -119.195312 107.484375 -99.414062 107.484375 -82.757812 L 107.484375 -43.460938 C 107.484375 -18.476562 89.265625 -5.984375 74.429688 -5.984375 Z M 74.429688 -5.984375 "/></g></g></g><g fill="#ebebeb" fill-opacity="1"><g transform="translate(260.208997, 260.167839)"><g><path d="M 79.894531 -127.523438 C 61.679688 -127.523438 46.0625 -118.933594 38.257812 -105.660156 L 38.515625 -122.835938 C 38.515625 -126.742188 36.433594 -128.824219 31.230469 -126.480469 L 12.492188 -117.371094 C 9.890625 -116.332031 8.328125 -114.769531 8.328125 -112.6875 L 8.328125 -111.90625 C 8.328125 -106.703125 18.738281 -106.441406 18.738281 -97.332031 L 18.738281 40.597656 C 18.738281 50.226562 9.109375 50.226562 9.109375 55.171875 L 9.109375 55.953125 C 9.109375 58.296875 11.449219 59.335938 14.574219 59.335938 L 46.585938 59.335938 C 49.707031 59.335938 51.789062 58.296875 51.789062 55.953125 L 51.789062 55.171875 C 51.789062 50.226562 41.640625 50.226562 41.640625 40.597656 L 41.640625 -15.355469 C 50.75 -4.164062 64.019531 2.601562 80.15625 2.601562 C 112.949219 2.601562 139.753906 -25.765625 139.753906 -64.28125 C 139.753906 -102.796875 111.648438 -127.523438 79.894531 -127.523438 Z M 77.035156 -5.726562 C 58.816406 -5.726562 41.640625 -24.984375 41.640625 -45.804688 L 41.640625 -90.304688 C 43.722656 -106.179688 58.035156 -119.195312 74.171875 -119.195312 C 99.414062 -119.195312 116.589844 -93.949219 116.589844 -58.035156 C 116.589844 -26.023438 100.976562 -5.726562 77.035156 -5.726562 Z M 77.035156 -5.726562 "/></g></g></g><g fill="#ebebeb" fill-opacity="1"><g transform="translate(389.025243, 260.167839)"><g><path d="M 115.03125 -36.695312 C 109.566406 -24.203125 97.074219 -14.054688 77.292969 -14.054688 C 54.390625 -14.054688 37.734375 -29.667969 32.011719 -54.132812 C 44.761719 -53.089844 59.335938 -52.308594 75.992188 -55.433594 C 100.457031 -60.378906 116.851562 -74.953125 116.851562 -92.910156 C 116.851562 -115.289062 97.074219 -127.78125 71.046875 -127.523438 C 34.875 -127.261719 8.847656 -101.238281 8.847656 -63.5 C 8.847656 -23.941406 35.132812 2.601562 71.308594 2.601562 C 103.320312 2.601562 119.453125 -19 122.835938 -34.613281 C 123.359375 -39.558594 117.371094 -40.339844 115.03125 -36.695312 Z M 67.144531 -118.671875 C 83.28125 -118.671875 94.46875 -108.003906 94.730469 -92.910156 C 94.992188 -76.253906 86.140625 -68.183594 71.566406 -65.0625 C 57.773438 -62.199219 42.160156 -62.71875 30.449219 -63.5 C 30.1875 -66.625 29.929688 -69.746094 29.929688 -72.871094 C 29.929688 -98.113281 44.761719 -118.671875 67.144531 -118.671875 Z M 67.144531 -118.671875 "/></g></g></g><g fill="#ebebeb" fill-opacity="1"><g transform="translate(498.323679, 260.167839)"><g><path d="M 74.429688 -127.523438 C 58.296875 -127.523438 46.324219 -118.671875 40.597656 -102.015625 L 40.597656 -122.835938 C 40.597656 -126.742188 38.777344 -128.824219 33.832031 -126.480469 L 14.054688 -117.632812 C 11.710938 -116.332031 10.148438 -114.769531 10.148438 -112.949219 L 10.148438 -112.425781 C 10.148438 -107.484375 20.558594 -107.222656 20.558594 -97.332031 L 20.558594 -18.21875 C 20.558594 -9.109375 10.929688 -8.847656 10.929688 -4.164062 L 10.929688 -3.121094 C 10.929688 -1.039062 12.753906 0 16.136719 0 L 48.40625 0 C 51.789062 0 53.609375 -1.039062 53.609375 -3.121094 L 53.609375 -4.164062 C 53.609375 -8.847656 42.679688 -9.109375 42.679688 -18.21875 L 42.679688 -77.554688 C 42.679688 -97.074219 50.488281 -113.46875 64.800781 -113.46875 C 80.9375 -113.46875 74.429688 -95.25 87.964844 -95.25 C 95.25 -95.25 98.375 -100.714844 98.375 -107.484375 C 98.375 -118.414062 90.046875 -127.523438 74.429688 -127.523438 Z M 74.429688 -127.523438 "/></g></g></g><g fill="#ebebeb" fill-opacity="1"><g transform="translate(570.928344, 260.167839)"><g/></g></g><g fill="#059669" fill-opacity="1"><g transform="translate(606.596824, 260.167839)"><g><path d="M 56.472656 2.601562 C 77.292969 2.601562 89.785156 -13.011719 89.785156 -29.148438 C 89.785156 -33.832031 83.539062 -34.09375 81.976562 -30.1875 C 80.9375 -21.339844 74.171875 -14.574219 62.71875 -14.574219 C 53.089844 -14.574219 46.324219 -22.121094 46.324219 -36.433594 L 46.324219 -114.507812 L 82.238281 -114.507812 C 84.320312 -114.507812 86.140625 -116.070312 86.140625 -118.414062 L 86.140625 -121.015625 C 86.140625 -123.097656 84.320312 -124.917969 82.238281 -124.917969 L 46.324219 -124.917969 L 46.0625 -149.644531 C 46.0625 -153.027344 45.023438 -154.847656 41.898438 -154.847656 L 39.296875 -154.847656 C 36.957031 -154.847656 35.132812 -153.027344 34.875 -149.644531 C 33.570312 -134.808594 27.585938 -124.917969 15.09375 -124.917969 L 5.726562 -124.917969 C 3.121094 -124.917969 1.820312 -123.359375 1.820312 -121.015625 L 1.820312 -118.414062 C 1.820312 -116.070312 3.382812 -114.507812 5.726562 -114.507812 L 22.902344 -114.507812 L 22.902344 -36.695312 C 22.902344 -10.148438 36.433594 2.601562 56.472656 2.601562 Z M 56.472656 2.601562 "/></g></g></g><g fill="#059669" fill-opacity="1"><g transform="translate(679.201749, 260.167839)"><g><path d="M 74.429688 -127.523438 C 58.296875 -127.523438 46.324219 -118.671875 40.597656 -102.015625 L 40.597656 -122.835938 C 40.597656 -126.742188 38.777344 -128.824219 33.832031 -126.480469 L 14.054688 -117.632812 C 11.710938 -116.332031 10.148438 -114.769531 10.148438 -112.949219 L 10.148438 -112.425781 C 10.148438 -107.484375 20.558594 -107.222656 20.558594 -97.332031 L 20.558594 -18.21875 C 20.558594 -9.109375 10.929688 -8.847656 10.929688 -4.164062 L 10.929688 -3.121094 C 10.929688 -1.039062 12.753906 0 16.136719 0 L 48.40625 0 C 51.789062 0 53.609375 -1.039062 53.609375 -3.121094 L 53.609375 -4.164062 C 53.609375 -8.847656 42.679688 -9.109375 42.679688 -18.21875 L 42.679688 -77.554688 C 42.679688 -97.074219 50.488281 -113.46875 64.800781 -113.46875 C 80.9375 -113.46875 74.429688 -95.25 87.964844 -95.25 C 95.25 -95.25 98.375 -100.714844 98.375 -107.484375 C 98.375 -118.414062 90.046875 -127.523438 74.429688 -127.523438 Z M 74.429688 -127.523438 "/></g></g></g><g fill="#059669" fill-opacity="1"><g transform="translate(755.710144, 260.167839)"><g><path d="M 139.492188 -116.589844 L 139.492188 -117.371094 C 139.492188 -119.714844 138.191406 -121.015625 135.589844 -121.796875 L 117.632812 -126.480469 C 112.425781 -128.300781 109.566406 -125.960938 109.566406 -122.054688 L 109.566406 -108.003906 C 100.976562 -119.453125 86.921875 -127.523438 70.007812 -127.523438 C 35.132812 -127.523438 8.847656 -100.714844 8.847656 -62.71875 C 8.847656 -23.160156 37.214844 2.601562 68.964844 2.601562 C 85.101562 2.601562 100.714844 -4.683594 109.304688 -18.738281 L 109.304688 -4.164062 C 109.304688 -1.820312 111.125 0 113.46875 0 L 135.589844 0 C 137.929688 0 139.234375 -1.039062 139.234375 -2.863281 L 139.234375 -3.644531 C 139.234375 -8.066406 129.605469 -8.847656 129.605469 -18.21875 L 129.605469 -100.976562 C 129.605469 -111.125 139.492188 -112.6875 139.492188 -116.589844 Z M 74.429688 -5.984375 C 48.40625 -6.246094 30.710938 -34.875 31.230469 -70.527344 C 31.488281 -99.675781 47.105469 -119.195312 69.746094 -119.195312 C 90.828125 -119.195312 107.484375 -99.414062 107.484375 -82.757812 L 107.484375 -43.460938 C 107.484375 -18.476562 89.265625 -5.984375 74.429688 -5.984375 Z M 74.429688 -5.984375 "/></g></g></g><g fill="#059669" fill-opacity="1"><g transform="translate(886.08782, 260.167839)"><g><path d="M 129.605469 -18.21875 L 129.605469 -190.761719 C 129.605469 -195.1875 127 -196.746094 121.535156 -194.664062 L 100.457031 -187.640625 C 98.113281 -186.597656 96.550781 -185.296875 96.550781 -183.214844 L 96.550781 -182.695312 C 96.550781 -178.011719 107.484375 -178.269531 107.484375 -167.339844 L 107.484375 -110.605469 C 98.632812 -120.753906 85.621094 -127.523438 69.746094 -127.523438 C 35.132812 -127.523438 8.847656 -100.714844 8.847656 -62.71875 C 8.847656 -23.160156 37.214844 2.601562 68.964844 2.601562 C 84.320312 2.601562 99.675781 -4.164062 108.523438 -17.175781 L 109.042969 -4.164062 C 109.304688 -1.820312 110.867188 0 113.46875 0 L 135.328125 0 C 137.929688 0 139.234375 -1.039062 139.234375 -2.863281 L 139.234375 -3.644531 C 139.234375 -8.066406 129.605469 -8.847656 129.605469 -18.21875 Z M 74.429688 -5.984375 C 48.40625 -6.246094 30.710938 -34.875 31.230469 -70.527344 C 31.488281 -99.675781 47.105469 -119.195312 69.484375 -119.195312 C 90.828125 -119.195312 107.484375 -99.414062 107.484375 -82.757812 L 107.484375 -56.734375 L 107.742188 -43.460938 L 107.484375 -43.460938 C 107.484375 -18.476562 89.265625 -5.984375 74.429688 -5.984375 Z M 74.429688 -5.984375 "/></g></g></g><g fill="#059669" fill-opacity="1"><g transform="translate(1013.86309, 260.167839)"><g><path d="M 115.03125 -36.695312 C 109.566406 -24.203125 97.074219 -14.054688 77.292969 -14.054688 C 54.390625 -14.054688 37.734375 -29.667969 32.011719 -54.132812 C 44.761719 -53.089844 59.335938 -52.308594 75.992188 -55.433594 C 100.457031 -60.378906 116.851562 -74.953125 116.851562 -92.910156 C 116.851562 -115.289062 97.074219 -127.78125 71.046875 -127.523438 C 34.875 -127.261719 8.847656 -101.238281 8.847656 -63.5 C 8.847656 -23.941406 35.132812 2.601562 71.308594 2.601562 C 103.320312 2.601562 119.453125 -19 122.835938 -34.613281 C 123.359375 -39.558594 117.371094 -40.339844 115.03125 -36.695312 Z M 67.144531 -118.671875 C 83.28125 -118.671875 94.46875 -108.003906 94.730469 -92.910156 C 94.992188 -76.253906 86.140625 -68.183594 71.566406 -65.0625 C 57.773438 -62.199219 42.160156 -62.71875 30.449219 -63.5 C 30.1875 -66.625 29.929688 -69.746094 29.929688 -72.871094 C 29.929688 -98.113281 44.761719 -118.671875 67.144531 -118.671875 Z M 67.144531 -118.671875 "/></g></g></g><g fill="#059669" fill-opacity="1"><g transform="translate(1123.161571, 260.167839)"><g><path d="M 74.429688 -127.523438 C 58.296875 -127.523438 46.324219 -118.671875 40.597656 -102.015625 L 40.597656 -122.835938 C 40.597656 -126.742188 38.777344 -128.824219 33.832031 -126.480469 L 14.054688 -117.632812 C 11.710938 -116.332031 10.148438 -114.769531 10.148438 -112.949219 L 10.148438 -112.425781 C 10.148438 -107.484375 20.558594 -107.222656 20.558594 -97.332031 L 20.558594 -18.21875 C 20.558594 -9.109375 10.929688 -8.847656 10.929688 -4.164062 L 10.929688 -3.121094 C 10.929688 -1.039062 12.753906 0 16.136719 0 L 48.40625 0 C 51.789062 0 53.609375 -1.039062 53.609375 -3.121094 L 53.609375 -4.164062 C 53.609375 -8.847656 42.679688 -9.109375 42.679688 -18.21875 L 42.679688 -77.554688 C 42.679688 -97.074219 50.488281 -113.46875 64.800781 -113.46875 C 80.9375 -113.46875 74.429688 -95.25 87.964844 -95.25 C 95.25 -95.25 98.375 -100.714844 98.375 -107.484375 C 98.375 -118.414062 90.046875 -127.523438 74.429688 -127.523438 Z M 74.429688 -127.523438 "/></g></g></g></g></g></svg>