<svg xmlns="http://www.w3.org/2000/svg" xmlns:xlink="http://www.w3.org/1999/xlink" width="800" zoomAndPan="magnify" viewBox="0 0 600 599.999999" height="800" preserveAspectRatio="xMidYMid meet" version="1.0"><defs><clipPath id="5eddd2d322"><path d="M 22 4.242188 L 578 4.242188 L 578 368 L 22 368 Z M 22 4.242188 " clip-rule="nonzero"/></clipPath><clipPath id="7236c1ab6d"><path d="M 22 278 L 434 278 L 434 595.992188 L 22 595.992188 Z M 22 278 " clip-rule="nonzero"/></clipPath></defs><rect x="-60" width="720" fill="#ffffff" y="-60" height="719.999999" fill-opacity="1"/><rect x="-60" width="720" fill="#1c1c1c" y="-60" height="719.999999" fill-opacity="1"/><g clip-path="url(#5eddd2d322)"><path fill="#a0e4e5" d="M 387.027344 237.972656 C 386.828125 238.089844 386.644531 238.222656 386.445312 238.339844 L 386.445312 212.027344 L 405.125 212.027344 L 405.125 67.25 L 414.457031 67.25 L 414.457031 212.027344 L 423.957031 212.027344 C 421.6875 213.765625 419.382812 215.550781 416.980469 217.289062 C 413.890625 219.492188 410.734375 221.746094 407.511719 224.050781 C 405.894531 225.199219 404.273438 226.386719 402.605469 227.539062 C 400.917969 228.671875 399.230469 229.808594 397.511719 230.960938 C 394.089844 233.265625 390.617188 235.636719 387.027344 237.972656 Z M 218.675781 314.203125 C 221.296875 313.433594 223.917969 312.664062 226.539062 311.898438 C 229.160156 311.128906 231.78125 310.363281 234.386719 309.609375 L 236.339844 309.042969 L 236.824219 308.894531 C 236.324219 309.027344 236.824219 308.875 236.773438 308.894531 L 237.007812 308.808594 L 237.957031 308.492188 L 241.730469 307.238281 C 243.132812 306.773438 244.535156 306.304688 245.957031 305.835938 L 245.957031 216.21875 L 225.621094 216.21875 L 225.621094 102.425781 L 216.289062 102.425781 L 216.289062 216.234375 L 199.277344 216.234375 L 199.277344 319.292969 C 203.132812 318.324219 207.007812 317.355469 210.863281 316.390625 C 213.382812 315.804688 216.054688 314.953125 218.675781 314.203125 Z M 116.734375 333.851562 L 118.707031 333.667969 L 120.660156 333.417969 L 124.582031 332.898438 C 127.203125 332.566406 129.824219 332.214844 132.460938 331.882812 C 136.871094 331.398438 141.261719 330.746094 145.667969 330.027344 L 145.667969 198.019531 L 126.570312 198.019531 L 126.570312 4.242188 L 117.238281 4.242188 L 117.238281 198.019531 L 98.988281 198.019531 L 98.988281 335.472656 C 99.691406 335.40625 100.410156 335.335938 101.109375 335.289062 C 106.285156 334.804688 111.511719 334.335938 116.734375 333.851562 Z M 299.964844 285.003906 C 302.285156 283.984375 304.605469 283 306.890625 281.945312 C 309.164062 280.863281 311.433594 279.792969 313.6875 278.726562 C 322.316406 274.769531 330.597656 270.445312 338.730469 266.289062 L 338.730469 172.8125 L 320.046875 172.8125 L 320.046875 49.570312 L 310.714844 49.570312 L 310.714844 172.8125 L 292.035156 172.8125 L 292.035156 288.457031 C 292.335938 288.324219 292.652344 288.191406 292.953125 288.058594 C 295.304688 287.039062 297.644531 286.019531 299.964844 285.003906 Z M 461.386719 159.070312 L 485.730469 182.578125 C 484.925781 183.3125 484.09375 184.046875 483.242188 184.847656 C 481.773438 186.21875 480.167969 187.652344 478.515625 189.15625 C 476.847656 190.691406 475.128906 192.296875 473.273438 193.949219 C 471.386719 195.632812 469.351562 197.371094 467.230469 199.15625 C 463.007812 202.796875 458.515625 206.753906 453.457031 210.757812 C 450.96875 212.78125 448.382812 214.851562 445.726562 216.988281 C 443.074219 219.15625 440.234375 221.210938 437.398438 223.414062 C 434.492188 225.585938 431.585938 227.890625 428.515625 230.125 C 425.441406 232.328125 422.289062 234.566406 419.066406 236.902344 C 417.429688 238.054688 415.84375 239.242188 414.175781 240.394531 C 412.488281 241.511719 410.785156 242.664062 409.066406 243.816406 C 405.644531 246.085938 402.171875 248.472656 398.582031 250.8125 C 391.335938 255.351562 383.890625 260.210938 375.992188 264.703125 C 368.164062 269.460938 359.914062 273.832031 351.519531 278.472656 C 342.988281 282.847656 334.304688 287.421875 325.222656 291.582031 C 322.953125 292.632812 320.714844 293.71875 318.410156 294.800781 C 316.140625 295.820312 313.804688 296.824219 311.484375 297.839844 C 309.179688 298.859375 306.859375 299.878906 304.488281 300.914062 C 303.335938 301.429688 302.152344 301.929688 300.980469 302.449219 C 299.796875 302.933594 298.613281 303.398438 297.441406 303.882812 C 292.652344 305.804688 287.859375 307.722656 283 309.628906 C 278.109375 311.445312 273.21875 313.234375 268.277344 315.019531 C 265.824219 315.972656 263.316406 316.738281 260.796875 317.609375 C 258.308594 318.441406 255.789062 319.277344 253.285156 320.09375 L 249.511719 321.347656 L 248.558594 321.664062 L 248.375 321.730469 L 248.308594 321.765625 L 248.140625 321.796875 L 247.890625 321.898438 L 245.9375 322.464844 C 243.316406 323.199219 240.695312 323.96875 238.074219 324.738281 L 230.210938 327.039062 C 227.589844 327.808594 224.902344 328.644531 222.382812 329.242188 C 217.238281 330.53125 212.132812 331.796875 206.988281 333.082031 C 201.878906 334.488281 196.570312 335.488281 191.328125 336.589844 C 188.707031 337.140625 186.085938 337.675781 183.464844 338.226562 C 180.84375 338.777344 178.222656 339.410156 175.570312 339.796875 C 165.035156 341.515625 154.515625 343.570312 143.980469 344.753906 C 141.359375 345.070312 138.738281 345.421875 136.117188 345.773438 L 132.195312 346.289062 L 130.242188 346.539062 L 128.253906 346.707031 C 123.011719 347.191406 117.804688 347.660156 112.628906 348.144531 C 110.042969 348.359375 107.453125 348.660156 104.867188 348.8125 L 22.191406 358.492188 L 101.007812 367.542969 C 102.511719 367.574219 103.980469 367.609375 105.484375 367.644531 C 108.136719 367.710938 110.824219 367.609375 113.496094 367.574219 C 118.855469 367.507812 124.265625 367.441406 129.691406 367.359375 L 131.726562 367.324219 L 133.765625 367.226562 L 137.820312 367.007812 C 140.578125 366.875 143.28125 366.722656 146.035156 366.589844 C 157.019531 366.207031 168.023438 364.953125 179.109375 364.003906 C 181.878906 363.785156 184.632812 363.367188 187.421875 363.019531 C 190.175781 362.667969 192.949219 362.316406 195.703125 361.933594 C 201.261719 361.199219 206.789062 360.597656 212.382812 359.527344 C 217.972656 358.578125 223.535156 357.609375 229.125 356.691406 C 231.964844 356.238281 234.550781 355.605469 237.273438 355.054688 C 239.929688 354.503906 242.617188 353.9375 245.289062 353.367188 C 247.941406 352.816406 250.628906 352.25 253.269531 351.714844 L 255.289062 351.296875 L 255.773438 351.164062 L 256.574219 350.980469 L 257.59375 350.730469 L 261.648438 349.746094 C 264.335938 349.078125 267.042969 348.410156 269.730469 347.726562 C 272.417969 347.058594 275.121094 346.421875 277.777344 345.65625 C 283.117188 344.152344 288.410156 342.648438 293.6875 341.179688 C 298.929688 339.527344 304.136719 337.890625 309.3125 336.257812 C 310.613281 335.871094 311.902344 335.453125 313.203125 335.039062 C 314.488281 334.585938 315.757812 334.136719 317.007812 333.703125 C 319.5625 332.832031 322.117188 331.949219 324.640625 331.046875 C 327.160156 330.144531 329.714844 329.328125 332.21875 328.394531 C 334.707031 327.441406 337.175781 326.507812 339.632812 325.554688 C 349.566406 321.914062 359.113281 317.792969 368.546875 313.867188 C 377.8125 309.644531 386.945312 305.652344 395.644531 301.28125 C 404.425781 297.089844 412.703125 292.566406 420.851562 288.308594 C 424.84375 286.105469 428.75 283.867188 432.605469 281.695312 C 434.527344 280.613281 436.445312 279.527344 438.332031 278.476562 C 440.21875 277.390625 442.039062 276.238281 443.859375 275.152344 C 447.496094 272.949219 451.070312 270.8125 454.558594 268.691406 C 458.015625 266.554688 461.335938 264.351562 464.59375 262.230469 C 467.847656 260.125 471.070312 258.105469 474.109375 256.035156 C 477.148438 253.964844 480.085938 251.914062 482.925781 249.960938 C 488.667969 246.085938 493.875 242.195312 498.699219 238.65625 C 501.121094 236.871094 503.460938 235.199219 505.664062 233.515625 C 507.898438 231.796875 510.003906 230.125 511.992188 228.554688 C 514.011719 226.988281 515.878906 225.519531 517.683594 224.117188 C 519.4375 222.746094 521.1875 221.394531 522.574219 220.226562 C 522.992188 219.910156 523.375 219.589844 523.726562 219.273438 L 548.519531 243.199219 L 577.785156 125.765625 Z M 461.386719 159.070312 " fill-opacity="1" fill-rule="nonzero"/></g><g clip-path="url(#7236c1ab6d)"><path fill="#3199cb" d="M 139.273438 362.984375 C 141.410156 362.867188 143.546875 362.769531 145.683594 362.652344 L 145.683594 438.964844 L 126.570312 438.964844 L 126.570312 506.179688 L 117.238281 506.179688 L 117.238281 438.964844 L 98.988281 438.964844 L 98.988281 367.324219 L 22.191406 358.511719 L 98.988281 367.308594 L 98.988281 363.453125 C 101.609375 363.519531 104.25 363.585938 106.886719 363.636719 C 109.558594 363.6875 112.226562 363.585938 114.898438 363.570312 C 120.277344 363.503906 125.667969 363.417969 131.09375 363.351562 L 133.128906 363.320312 L 135.167969 363.21875 Z M 326.042969 327.007812 C 323.503906 327.890625 320.964844 328.777344 318.410156 329.660156 C 317.144531 330.113281 315.855469 330.546875 314.589844 330.996094 C 313.304688 331.414062 312 331.816406 310.714844 332.234375 C 305.539062 333.851562 300.332031 335.488281 295.089844 337.125 C 294.085938 337.40625 293.050781 337.691406 292.050781 337.976562 L 292.050781 480.96875 L 310.730469 480.96875 L 310.730469 595.796875 L 320.066406 595.796875 L 320.066406 480.96875 L 338.746094 480.96875 L 338.746094 322.398438 C 337.042969 323.050781 335.339844 323.703125 333.621094 324.351562 C 331.117188 325.269531 328.578125 326.121094 326.042969 327.007812 Z M 422.222656 284.25 C 414.089844 288.492188 405.808594 293.050781 397.011719 297.207031 C 393.554688 298.941406 390.015625 300.628906 386.445312 302.28125 L 386.445312 382.902344 L 405.125 382.902344 L 405.125 506.144531 L 414.457031 506.144531 L 414.457031 382.902344 L 433.140625 382.902344 L 433.140625 278.105469 C 429.566406 280.144531 425.945312 282.214844 422.222656 284.25 Z M 230.527344 352.632812 C 224.953125 353.585938 219.378906 354.535156 213.785156 355.488281 C 208.925781 356.40625 204.101562 356.992188 199.277344 357.609375 L 199.277344 387.109375 L 216.289062 387.109375 L 216.289062 502.820312 L 225.621094 502.820312 L 225.621094 387.109375 L 245.957031 387.109375 L 245.957031 349.496094 C 243.519531 350.011719 241.097656 350.511719 238.660156 351.03125 C 235.972656 351.582031 233.367188 352.199219 230.527344 352.632812 Z M 230.527344 352.632812 " fill-opacity="1" fill-rule="nonzero"/></g></svg>