<svg xmlns="http://www.w3.org/2000/svg" xmlns:xlink="http://www.w3.org/1999/xlink" width="800" zoomAndPan="magnify" viewBox="0 0 600 599.999999" height="800" preserveAspectRatio="xMidYMid meet" version="1.0"><defs><clipPath id="c514b5576f"><path d="M 54 38.617188 L 545.972656 38.617188 L 545.972656 360 L 54 360 Z M 54 38.617188 " clip-rule="nonzero"/></clipPath><clipPath id="f23dc2fdfa"><path d="M 54 280 L 418 280 L 418 561.367188 L 54 561.367188 Z M 54 280 " clip-rule="nonzero"/></clipPath></defs><g clip-path="url(#c514b5576f)"><path fill="#059669" d="M 376.914062 245.183594 C 376.734375 245.285156 376.574219 245.40625 376.398438 245.507812 L 376.398438 222.253906 L 392.90625 222.253906 L 392.90625 94.300781 L 401.15625 94.300781 L 401.15625 222.253906 L 409.550781 222.253906 C 407.542969 223.789062 405.507812 225.367188 403.382812 226.902344 C 400.652344 228.851562 397.863281 230.84375 395.015625 232.878906 C 393.585938 233.894531 392.15625 234.945312 390.679688 235.960938 C 389.1875 236.964844 387.699219 237.96875 386.179688 238.988281 C 383.15625 241.023438 380.085938 243.117188 376.914062 245.183594 Z M 228.125 312.554688 C 230.441406 311.875 232.757812 311.195312 235.074219 310.519531 C 237.390625 309.839844 239.707031 309.160156 242.011719 308.496094 L 243.738281 307.996094 L 244.164062 307.863281 C 243.722656 307.980469 244.164062 307.847656 244.121094 307.863281 L 244.328125 307.789062 L 245.167969 307.507812 L 248.503906 306.402344 C 249.742188 305.988281 250.980469 305.574219 252.234375 305.160156 L 252.234375 225.957031 L 234.265625 225.957031 L 234.265625 125.390625 L 226.015625 125.390625 L 226.015625 225.972656 L 210.980469 225.972656 L 210.980469 317.054688 C 214.390625 316.199219 217.8125 315.34375 221.222656 314.488281 C 223.449219 313.96875 225.808594 313.21875 228.125 312.554688 Z M 138.035156 329.921875 L 139.773438 329.757812 L 141.5 329.535156 L 144.96875 329.078125 C 147.285156 328.785156 149.601562 328.472656 151.933594 328.179688 C 155.828125 327.75 159.707031 327.175781 163.601562 326.542969 L 163.601562 209.875 L 146.722656 209.875 L 146.722656 38.617188 L 138.476562 38.617188 L 138.476562 209.875 L 122.347656 209.875 L 122.347656 331.351562 C 122.96875 331.292969 123.601562 331.234375 124.222656 331.1875 C 128.796875 330.761719 133.414062 330.347656 138.035156 329.921875 Z M 299.96875 286.746094 C 302.019531 285.847656 304.070312 284.976562 306.089844 284.046875 C 308.097656 283.089844 310.105469 282.144531 312.09375 281.199219 C 319.722656 277.703125 327.042969 273.882812 334.226562 270.207031 L 334.226562 187.597656 L 317.71875 187.597656 L 317.71875 78.675781 L 309.46875 78.675781 L 309.46875 187.597656 L 292.957031 187.597656 L 292.957031 289.800781 C 293.222656 289.683594 293.503906 289.566406 293.769531 289.449219 C 295.851562 288.546875 297.917969 287.648438 299.96875 286.746094 Z M 442.632812 175.453125 L 464.144531 196.226562 C 463.433594 196.875 462.699219 197.527344 461.945312 198.234375 C 460.648438 199.445312 459.230469 200.714844 457.769531 202.039062 C 456.292969 203.398438 454.773438 204.816406 453.136719 206.277344 C 451.46875 207.765625 449.667969 209.300781 447.796875 210.878906 C 444.0625 214.09375 440.09375 217.59375 435.621094 221.132812 C 433.425781 222.917969 431.136719 224.75 428.792969 226.636719 C 426.445312 228.554688 423.9375 230.371094 421.429688 232.316406 C 418.859375 234.234375 416.292969 236.273438 413.578125 238.25 C 410.863281 240.195312 408.074219 242.175781 405.226562 244.238281 C 403.78125 245.257812 402.378906 246.304688 400.90625 247.324219 C 399.414062 248.3125 397.910156 249.328125 396.390625 250.347656 C 393.363281 252.355469 390.296875 254.464844 387.125 256.53125 C 380.71875 260.542969 374.140625 264.835938 367.160156 268.804688 C 360.242188 273.011719 352.953125 276.878906 345.53125 280.980469 C 337.988281 284.84375 330.316406 288.886719 322.292969 292.5625 C 320.285156 293.492188 318.308594 294.449219 316.269531 295.410156 C 314.265625 296.308594 312.199219 297.195312 310.148438 298.09375 C 308.113281 298.996094 306.0625 299.894531 303.964844 300.808594 C 302.949219 301.265625 301.898438 301.710938 300.867188 302.167969 C 299.820312 302.59375 298.773438 303.007812 297.738281 303.4375 C 293.503906 305.132812 289.269531 306.828125 284.976562 308.511719 C 280.652344 310.121094 276.328125 311.699219 271.960938 313.277344 C 269.792969 314.117188 267.582031 314.796875 265.351562 315.5625 C 263.152344 316.300781 260.925781 317.039062 258.710938 317.761719 L 255.378906 318.871094 L 254.539062 319.148438 L 254.375 319.207031 L 254.316406 319.238281 L 254.167969 319.265625 L 253.945312 319.355469 L 252.21875 319.859375 C 249.902344 320.507812 247.585938 321.1875 245.269531 321.863281 L 238.320312 323.902344 C 236.003906 324.578125 233.628906 325.316406 231.402344 325.847656 C 226.855469 326.984375 222.34375 328.105469 217.796875 329.242188 C 213.28125 330.480469 208.589844 331.367188 203.957031 332.339844 C 201.640625 332.828125 199.324219 333.300781 197.007812 333.785156 C 194.691406 334.273438 192.375 334.832031 190.027344 335.171875 C 180.71875 336.691406 171.421875 338.507812 162.113281 339.554688 C 159.796875 339.835938 157.480469 340.144531 155.164062 340.457031 L 151.695312 340.914062 L 149.96875 341.132812 L 148.214844 341.28125 C 143.582031 341.710938 138.976562 342.121094 134.402344 342.550781 C 132.117188 342.742188 129.828125 343.007812 127.542969 343.140625 L 54.476562 351.699219 L 124.132812 359.695312 C 125.460938 359.726562 126.761719 359.753906 128.089844 359.785156 C 130.433594 359.84375 132.808594 359.753906 135.171875 359.726562 C 139.90625 359.667969 144.6875 359.605469 149.484375 359.535156 L 151.285156 359.503906 L 153.082031 359.414062 L 156.667969 359.222656 C 159.101562 359.105469 161.492188 358.972656 163.929688 358.855469 C 173.636719 358.515625 183.359375 357.410156 193.15625 356.566406 C 195.605469 356.375 198.042969 356.007812 200.503906 355.695312 C 202.941406 355.386719 205.390625 355.078125 207.824219 354.738281 C 212.738281 354.089844 217.621094 353.558594 222.5625 352.613281 C 227.507812 351.773438 232.417969 350.917969 237.363281 350.105469 C 239.871094 349.707031 242.15625 349.144531 244.5625 348.660156 C 246.910156 348.171875 249.285156 347.671875 251.644531 347.167969 C 253.992188 346.683594 256.367188 346.179688 258.699219 345.707031 L 260.484375 345.339844 L 260.910156 345.222656 L 261.621094 345.058594 L 262.519531 344.835938 L 266.105469 343.96875 C 268.480469 343.375 270.871094 342.785156 273.246094 342.183594 C 275.621094 341.589844 278.011719 341.03125 280.359375 340.351562 C 285.078125 339.023438 289.757812 337.695312 294.417969 336.398438 C 299.050781 334.9375 303.65625 333.492188 308.230469 332.046875 C 309.378906 331.707031 310.515625 331.335938 311.667969 330.96875 C 312.804688 330.570312 313.925781 330.171875 315.03125 329.789062 C 317.289062 329.019531 319.546875 328.238281 321.773438 327.441406 C 324.003906 326.644531 326.261719 325.921875 328.472656 325.09375 C 330.671875 324.253906 332.855469 323.429688 335.023438 322.585938 C 343.804688 319.371094 352.242188 315.726562 360.578125 312.257812 C 368.769531 308.527344 376.839844 305 384.527344 301.132812 C 392.289062 297.429688 399.605469 293.433594 406.804688 289.667969 C 410.332031 287.722656 413.785156 285.746094 417.195312 283.828125 C 418.890625 282.867188 420.585938 281.910156 422.253906 280.980469 C 423.921875 280.019531 425.53125 279 427.136719 278.042969 C 430.355469 276.09375 433.511719 274.207031 436.597656 272.332031 C 439.652344 270.445312 442.585938 268.496094 445.464844 266.621094 C 448.339844 264.761719 451.1875 262.976562 453.875 261.148438 C 456.558594 259.320312 459.15625 257.503906 461.664062 255.777344 C 466.742188 252.355469 471.34375 248.917969 475.609375 245.789062 C 477.746094 244.210938 479.8125 242.734375 481.761719 241.246094 C 483.738281 239.722656 485.597656 238.25 487.351562 236.863281 C 489.136719 235.476562 490.789062 234.175781 492.382812 232.9375 C 493.933594 231.726562 495.484375 230.53125 496.707031 229.5 C 497.074219 229.21875 497.414062 228.9375 497.726562 228.660156 L 519.636719 249.800781 L 545.5 146.015625 Z M 442.632812 175.453125 " fill-opacity="1" fill-rule="nonzero"/></g><g clip-path="url(#f23dc2fdfa)"><path fill="#d21a53" d="M 157.953125 355.667969 C 159.839844 355.5625 161.730469 355.476562 163.617188 355.371094 L 163.617188 422.816406 L 146.722656 422.816406 L 146.722656 482.21875 L 138.476562 482.21875 L 138.476562 422.816406 L 122.347656 422.816406 L 122.347656 359.503906 L 54.476562 351.714844 L 122.347656 359.488281 L 122.347656 356.082031 C 124.664062 356.140625 126.996094 356.199219 129.328125 356.242188 C 131.6875 356.289062 134.050781 356.199219 136.410156 356.183594 C 141.160156 356.125 145.925781 356.050781 150.722656 355.992188 L 152.523438 355.960938 L 154.324219 355.875 Z M 323.015625 323.871094 C 320.769531 324.652344 318.527344 325.433594 316.269531 326.21875 C 315.148438 326.617188 314.011719 327 312.890625 327.398438 C 311.757812 327.765625 310.605469 328.121094 309.46875 328.488281 C 304.894531 329.921875 300.292969 331.367188 295.660156 332.8125 C 294.773438 333.0625 293.859375 333.3125 292.972656 333.566406 L 292.972656 459.941406 L 309.484375 459.941406 L 309.484375 561.421875 L 317.730469 561.421875 L 317.730469 459.941406 L 334.242188 459.941406 L 334.242188 319.796875 C 332.738281 320.375 331.234375 320.949219 329.710938 321.523438 C 327.5 322.335938 325.257812 323.089844 323.015625 323.871094 Z M 408.015625 286.085938 C 400.832031 289.832031 393.511719 293.859375 385.738281 297.535156 C 382.683594 299.066406 379.554688 300.558594 376.398438 302.019531 L 376.398438 373.269531 L 392.90625 373.269531 L 392.90625 482.191406 L 401.15625 482.191406 L 401.15625 373.269531 L 417.664062 373.269531 L 417.664062 280.652344 C 414.507812 282.453125 411.304688 284.285156 408.015625 286.085938 Z M 238.601562 346.519531 C 233.675781 347.359375 228.746094 348.203125 223.804688 349.042969 C 219.507812 349.855469 215.246094 350.371094 210.980469 350.917969 L 210.980469 376.988281 L 226.015625 376.988281 L 226.015625 479.253906 L 234.265625 479.253906 L 234.265625 376.988281 L 252.234375 376.988281 L 252.234375 343.746094 C 250.082031 344.203125 247.941406 344.644531 245.789062 345.101562 C 243.410156 345.589844 241.109375 346.136719 238.601562 346.519531 Z M 238.601562 346.519531 " fill-opacity="1" fill-rule="nonzero"/></g></svg>